<svg xmlns="http://www.w3.org/2000/svg" viewBox="0 0 147.23 147.23"><title>dobliviate logo</title><path d="M116.61,15.78c2.51,1.74,5.12,3.37,7.53,5.25C137.72,31.6,146.89,45.17,150.8,62c5.42,23.23.77,44.47-14,63.28a71.28,71.28,0,0,1-37.19,24.88,73.53,73.53,0,0,1-68.31-15C18.5,124,10.22,110.08,7.15,93.34,3,70.47,8.26,49.86,23.13,32A71.28,71.28,0,0,1,65.75,7.05,72.9,72.9,0,0,1,98.46,8.3c.8.21,1.13.52,1.12,1.41q0,18.76,0,37.54v1.12c-.45-.24-.75-.39-1-.56a37.1,37.1,0,1,0,17.74,31.32q0-31.15,0-62.31a7.53,7.53,0,0,1,.07-.83Z" transform="translate(-5.75 -5.76)"/><path d="M56.88,79.36a22.47,22.47,0,1,1,22.48,22.5A22.52,22.52,0,0,1,56.88,79.36Z" transform="translate(-5.75 -5.76)"/></svg>